<svg width="256" height="315" viewBox="0 0 256 315" fill="none" xmlns="http://www.w3.org/2000/svg">
<g clip-path="url(#clip0_8_10)">
<path d="M213.803 167.03C214.245 214.61 255.543 230.443 256 230.645C255.65 231.761 249.401 253.208 234.243 275.361C221.139 294.514 207.538 313.596 186.113 313.991C165.063 314.379 158.293 301.508 134.225 301.508C110.164 301.508 102.643 313.596 82.7153 314.379C62.0353 315.162 46.2873 293.669 33.0753 274.586C6.07526 235.553 -14.5577 164.286 13.1473 116.18C26.9103 92.29 51.5073 77.163 78.2033 76.775C98.5103 76.388 117.678 90.437 130.092 90.437C142.498 90.437 165.791 73.542 190.278 76.023C200.528 76.45 229.304 80.163 247.781 107.209C246.291 108.132 213.446 127.253 213.803 167.031M174.24 50.199C185.22 36.909 192.609 18.409 190.593 0C174.767 0.636 155.631 10.546 144.279 23.828C134.106 35.591 125.197 54.417 127.601 72.461C145.241 73.826 163.261 63.497 174.241 50.199" fill="black"/>
</g>
<defs>
<clipPath id="clip0_8_10">
<rect width="256" height="315" fill="white"/>
</clipPath>
</defs>
</svg>
