<svg width="294" height="294" viewBox="0 0 294 294" fill="none" xmlns="http://www.w3.org/2000/svg">
<path d="M146.853 0C65.709 0 0 65.856 0 147C0 228.144 65.709 294 146.853 294C228.144 294 294 228.144 294 147C294 65.856 228.144 0 146.853 0ZM248.724 88.2H205.359C200.758 69.9934 193.946 52.4187 185.073 35.868C211.887 45.0996 234.482 63.6763 248.724 88.2ZM147 29.988C159.201 47.628 168.756 67.179 175.077 88.2H118.923C125.244 67.179 134.799 47.628 147 29.988ZM33.222 176.4C30.87 166.992 29.4 157.143 29.4 147C29.4 136.857 30.87 127.008 33.222 117.6H82.908C81.732 127.302 80.85 137.004 80.85 147C80.85 156.996 81.732 166.698 82.908 176.4H33.222ZM45.276 205.8H88.641C93.345 224.175 100.107 241.815 108.927 258.132C82.0843 248.951 59.4737 230.361 45.276 205.8V205.8ZM88.641 88.2H45.276C59.4737 63.6389 82.0843 45.0492 108.927 35.868C100.054 52.4187 93.2418 69.9934 88.641 88.2V88.2ZM147 264.012C134.799 246.372 125.244 226.821 118.923 205.8H175.077C168.756 226.821 159.201 246.372 147 264.012ZM181.398 176.4H112.602C111.279 166.698 110.25 156.996 110.25 147C110.25 137.004 111.279 127.155 112.602 117.6H181.398C182.721 127.155 183.75 137.004 183.75 147C183.75 156.996 182.721 166.698 181.398 176.4ZM185.073 258.132C193.893 241.815 200.655 224.175 205.359 205.8H248.724C234.482 230.324 211.887 248.9 185.073 258.132V258.132ZM211.092 176.4C212.268 166.698 213.15 156.996 213.15 147C213.15 137.004 212.268 127.302 211.092 117.6H260.778C263.13 127.008 264.6 136.857 264.6 147C264.6 157.143 263.13 166.992 260.778 176.4H211.092Z" fill="white"/>
</svg>
