<svg width="204" height="191" viewBox="0 0 204 191" fill="none" xmlns="http://www.w3.org/2000/svg">
<path d="M68 13.6429C74.7246 13.6429 81.2981 15.6432 86.8894 19.3909C92.4807 23.1387 96.8385 28.4655 99.4119 34.6978C101.985 40.93 102.659 47.7878 101.347 54.404C100.035 61.0201 96.7966 67.0974 92.0416 71.8674C87.2866 76.6374 81.2284 79.8858 74.6331 81.2018C68.0377 82.5178 61.2015 81.8424 54.9888 79.2609C48.7761 76.6794 43.466 72.3078 39.73 66.6989C35.9941 61.09 34 54.4958 34 47.75C34 38.7042 37.5821 30.0289 43.9584 23.6326C50.3346 17.2363 58.9826 13.6429 68 13.6429M68 0C58.5856 0 49.3826 2.80049 41.5549 8.04733C33.7271 13.2942 27.6261 20.7517 24.0233 29.4769C20.4206 38.202 19.478 47.803 21.3146 57.0656C23.1513 66.3282 27.6847 74.8364 34.3417 81.5143C40.9987 88.1923 49.4802 92.7401 58.7137 94.5825C67.9472 96.4249 77.518 95.4793 86.2157 91.8652C94.9135 88.2512 102.348 82.1309 107.578 74.2785C112.808 66.426 115.6 57.1941 115.6 47.75C115.6 35.0859 110.585 22.9405 101.658 13.9857C92.7316 5.03079 80.6243 0 68 0V0ZM136 191H122.4V156.893C122.4 147.847 118.818 139.172 112.442 132.775C106.065 126.379 97.4174 122.786 88.4 122.786H47.6C38.5826 122.786 29.9346 126.379 23.5584 132.775C17.1821 139.172 13.6 147.847 13.6 156.893V191H0V156.893C0 144.229 5.01499 132.083 13.9417 123.129C22.8684 114.174 34.9757 109.143 47.6 109.143H88.4C101.024 109.143 113.132 114.174 122.058 123.129C130.985 132.083 136 144.229 136 156.893V191ZM136 13.6429H204V27.2857H136V13.6429ZM136 47.75H204V61.3929H136V47.75ZM136 81.8571H183.6V95.5H136V81.8571Z" fill="white"/>
</svg>
